<svg xmlns="http://www.w3.org/2000/svg" enable-background="new 0 0 512 512" viewBox="0 0 512 512"><path fill="#0d0d0d" d="M125,451c-37.5,0-68-30.5-68-68s30.5-68,68-68s68,30.5,68,68S162.5,451,125,451z M125,325
				c-32,0-58,26-58,58s26,58,58,58s58-26,58-58S157,325,125,325z"/><path fill="#0d0d0d" d="M125 420c-20.4 0-37-16.6-37-37s16.6-37 37-37 37 16.6 37 37S145.4 420 125 420zM125 356c-14.9 0-27 12.1-27 27s12.1 27 27 27 27-12.1 27-27S139.9 356 125 356zM62 414H5c-2.8 0-5-2.2-5-5v-52c0-2.8 2.2-5 5-5h57c2.8 0 5 2.2 5 5v52C67 411.8 64.8 414 62 414zM10 404h47v-42H10V404z"/><path fill="#0d0d0d" d="M28,357H18v-49c0-1.2,0.4-2.3,1.2-3.2C49.4,268.7,93.6,248,140.7,248h49.9l26.4-32.8
				c20.3-25.2,46.5-45.9,75.8-59.9c29.2-14,61.8-21.4,94.2-21.4v10c-63.3,0-122.4,28.3-162.2,77.5l-27.9,34.6
				c-0.9,1.2-2.4,1.9-3.9,1.9h-52.3c-43.5,0-84.5,18.9-112.7,51.8V357z"/><path fill="#0d0d0d" d="M273 258h-47c-2.8 0-5-2.2-5-5v-13c0-9.9 8.1-18 18-18h34c9.9 0 18 8.1 18 18S282.9 258 273 258zM231 248h42c4.4 0 8-3.6 8-8s-3.6-8-8-8h-34c-4.4 0-8 3.6-8 8V248zM59 313H23c-1.9 0-3.7-1.1-4.5-2.9-.8-1.8-.6-3.8.7-5.3C32.9 288.4 53 279 74.4 279H83c2.8 0 5 2.2 5 5C88 300 75 313 59 313zM35.1 303H59c8.7 0 16.1-5.9 18.3-14h-3C59.9 289 46.1 294 35.1 303z"/><path fill="#0d0d0d" d="M472,451c-0.9,0-1.8-0.2-2.6-0.7c-1.5-0.9-2.4-2.5-2.4-4.3v-40.3l-20-10.2l-20,10.2V446
				c0,1.7-0.9,3.4-2.4,4.3c-1.5,0.9-3.3,1-4.9,0.2L393.4,437l4.6-8.9l19.1,9.8v-35.2c0-1.9,1.1-3.6,2.7-4.5l25-12.8
				c1.4-0.7,3.1-0.7,4.6,0l25,12.8c1.7,0.9,2.7,2.6,2.7,4.5v35.2l25-12.8v-55.3l-32.3-16.5c-1.7-0.9-2.7-2.6-2.7-4.5V163.2
				c0-1.9,1.1-3.6,2.7-4.5l32.3-16.5V87l-25-12.8v35.2c0,1.9-1.1,3.6-2.7,4.5l-25,12.8c-1.4,0.7-3.1,0.7-4.6,0l-25-12.8
				c-1.7-0.9-2.7-2.6-2.7-4.5V74.2L392,87v55.3l32.3,16.5c1.7,0.9,2.7,2.6,2.7,4.5v185.6c0,1.9-1.1,3.6-2.7,4.5L392,369.8V382
				c0,2.8-2.2,5-5,5h-1c-1.3,4.4-3.1,8.6-5.2,12.6l9.2,9.2c0.9,0.9,1.5,2.2,1.5,3.5s-0.5,2.6-1.5,3.5L368.8,437c-2,2-5.1,2-7.1,0
				l-9.2-9.2c-4,2.1-8.2,3.9-12.6,5.2v13c0,2.8-2.2,5-5,5h-30c-2.8,0-5-2.2-5-5v-13c-4.4-1.3-8.6-3.1-12.6-5.2l-9.2,9.2
				c-2,2-5.1,2-7.1,0L250,415.8c-2-2-2-5.1,0-7.1l9.2-9.2c-2.1-4-3.9-8.2-5.2-12.6h-13c-2.8,0-5-2.2-5-5v-30c0-2.8,2.2-5,5-5h13
				c1.3-4.4,3.1-8.6,5.2-12.6l-9.2-9.2c-2-2-2-5.1,0-7.1l21.2-21.2c2-2,5.1-2,7.1,0l9.2,9.2c4-2.1,8.2-3.9,12.6-5.2v-13
				c0-2.8,2.2-5,5-5h30c2.8,0,5,2.2,5,5v13c4.4,1.3,8.6,3.1,12.6,5.2l9.2-9.2c2-2,5.1-2,7.1,0l21.2,21.2c0.9,0.9,1.5,2.2,1.5,3.5
				s-0.5,2.6-1.5,3.5l-9.2,9.2c2.1,4,3.9,8.2,5.2,12.6h13c2.8,0,5,2.2,5,5v0.4l13-6.7V166.3l-32.3-16.5c-1.7-0.9-2.7-2.6-2.7-4.5
				V83.9c0-1.9,1.1-3.6,2.7-4.5l35-17.9c1.5-0.8,3.4-0.7,4.9,0.2c1.5,0.9,2.4,2.5,2.4,4.3v40.3l20,10.2l20-10.2V66
				c0-1.7,0.9-3.4,2.4-4.3s3.3-1,4.9-0.2l35,17.9c1.7,0.9,2.7,2.6,2.7,4.5v61.4c0,1.9-1.1,3.6-2.7,4.5L477,166.3v179.5l32.3,16.5
				c1.7,0.9,2.7,2.6,2.7,4.5v61.4c0,1.9-1.1,3.6-2.7,4.5l-35,17.9C473.6,450.8,472.8,451,472,451z M310,441h20v-11.8
				c0-2.3,1.6-4.3,3.8-4.9c6-1.4,11.7-3.8,16.9-7c2-1.2,4.5-0.9,6.1,0.7l8.3,8.3l14.1-14.1l-8.3-8.3c-1.6-1.6-1.9-4.2-0.7-6.1
				c3.2-5.2,5.6-10.9,7-16.9c0.5-2.2,2.4-3.7,4.6-3.8v-10.3c0-1.9,1.1-3.6,2.7-4.5l9.3-4.7V357h-11.8c-2.3,0-4.3-1.6-4.9-3.8
				c-1.4-6-3.8-11.7-7-16.9c-1.2-2-0.9-4.5,0.7-6.1l8.3-8.3l-14.1-14.1l-8.3,8.3c-1.6,1.6-4.2,1.9-6.1,0.7c-5.2-3.2-10.9-5.6-16.9-7
				c-2.2-0.5-3.8-2.5-3.8-4.9V293h-20v11.8c0,2.3-1.6,4.3-3.8,4.9c-6,1.4-11.7,3.8-16.9,7c-2,1.2-4.5,0.9-6.1-0.7l-8.3-8.3
				l-14.1,14.1l8.3,8.3c1.6,1.6,1.9,4.2,0.7,6.1c-3.2,5.2-5.6,10.9-7,16.9c-0.5,2.2-2.6,3.8-4.9,3.8H246v20h11.8
				c2.3,0,4.3,1.6,4.9,3.8c1.4,6,3.8,11.7,7,16.9c1.2,2,0.9,4.5-0.7,6.1l-8.3,8.3l14.1,14.1l8.3-8.3c1.6-1.6,4.2-1.9,6.1-0.7
				c5.2,3.2,10.9,5.6,16.9,7c2.2,0.5,3.8,2.5,3.8,4.9V441z M320,407c-22.1,0-40-17.9-40-40s17.9-40,40-40s40,17.9,40,40
				S342.1,407,320,407z M320,337c-16.5,0-30,13.5-30,30s13.5,30,30,30s30-13.5,30-30S336.5,337,320,337z"/><path fill="#0d0d0d" d="M251.3,230.2l-7.7-6.4l6-7.2C279.8,180,324.3,159,371.8,159H422v10h-50.2
				c-44.5,0-86.2,19.7-114.5,54L251.3,230.2z"/><rect width="176" height="10" x="226" y="248" fill="#0d0d0d"/><path fill="#0d0d0d" d="M256.8,414H188c-2.8,0-5-2.2-5-5v-52c0-2.8,2.2-5,5-5h53v10h-48v42h63.8V414z"/><rect width="67.1" height="10" x="286.5" y="352" fill="#0d0d0d"/></svg>