<svg xmlns="http://www.w3.org/2000/svg" xmlns:xlink="http://www.w3.org/1999/xlink" viewBox="0 0 4680 3120"><defs><linearGradient id="a" x1="2117.38" x2="3390.82" y1="2738.16" y2="2738.16" gradientUnits="userSpaceOnUse"><stop offset="0" stop-color="#fc9cd9"/><stop offset="1" stop-color="#5b2970"/></linearGradient><linearGradient id="d" x1="2928.04" x2="1723.66" y1="2440.98" y2="354.94" xlink:href="#a"/><linearGradient id="b" x1="1963.7" x2="2019.22" y1="896.52" y2="896.52" gradientUnits="userSpaceOnUse"><stop offset="0" stop-color="#ec1e79"/><stop offset="1" stop-color="#9d40b1"/></linearGradient><linearGradient id="e" x1="2675.39" x2="2730.92" y1="982.69" y2="982.69" xlink:href="#b"/><linearGradient id="f" x1="2199.01" x2="2254.54" y1="776.22" y2="776.22" xlink:href="#b"/><linearGradient id="c" x1="2316.67" x2="2372.19" y1="918.61" y2="918.61" gradientUnits="userSpaceOnUse"><stop offset="0" stop-color="#72f1fb"/><stop offset="1" stop-color="#72f1fb" stop-opacity="0"/></linearGradient><linearGradient id="g" x1="2434.33" x2="2489.85" y1="898.21" y2="898.21" xlink:href="#b"/><linearGradient id="h" x1="2081.35" x2="2136.88" y1="836.07" y2="836.07" xlink:href="#c"/><linearGradient id="i" x1="2552.38" x2="2607.9" y1="840.21" y2="840.21" xlink:href="#c"/><linearGradient id="j" x1="2850.18" x2="3375.61" y1="828.39" y2="828.39" xlink:href="#c"/><linearGradient id="k" x1="1626.55" x2="2004.5" y1="2254.67" y2="2254.67" xlink:href="#c"/><linearGradient id="t" x1="151.45" x2="214.48" y1="2359.91" y2="2359.91" gradientTransform="rotate(94.1 1630.205 3193.272)" xlink:href="#c"/><linearGradient id="u" x1="2533.38" x2="2596.42" y1="1922.64" y2="1922.64" xlink:href="#c"/><linearGradient id="v" x1="679.76" x2="711.28" y1="4441.15" y2="4441.15" gradientTransform="translate(1869.38 -1982.31)" xlink:href="#c"/><linearGradient id="w" x1="3558.23" x2="3629.07" y1="1225.6" y2="1225.6" xlink:href="#c"/><linearGradient id="x" x1="3307.79" x2="3351.32" y1="1799.64" y2="1799.64" xlink:href="#c"/><linearGradient id="y" x1="-516.79" x2="-458.6" y1="2053.3" y2="2053.3" gradientTransform="rotate(110.6 2005.117 2727.582)" xlink:href="#c"/><linearGradient id="z" x1="-593.36" x2="-554.87" y1="3486.58" y2="3486.58" gradientTransform="rotate(122.43 1315.334 2822.725)" xlink:href="#c"/><linearGradient id="A" x1="1396.36" x2="1463.92" y1="758.8" y2="758.8" xlink:href="#c"/><linearGradient id="B" x1="3524.2" x2="3586.25" y1="4400.45" y2="4400.45" gradientTransform="rotate(-73.7 1973.2 3342.192)" xlink:href="#c"/><linearGradient id="C" x1="3122.75" x2="3158.17" y1="990.31" y2="990.31" xlink:href="#c"/><linearGradient id="D" x1="747.94" x2="796.82" y1="4585.9" y2="4585.9" gradientTransform="rotate(170.74 1037.196 3132.179)" xlink:href="#c"/><linearGradient id="E" x1="1039.95" x2="1088.83" y1="1534.56" y2="1534.56" xlink:href="#c"/><linearGradient id="F" x1="494.91" x2="524" y1="4751.91" y2="4751.91" gradientTransform="translate(2943.71 -3776.63)" xlink:href="#c"/><linearGradient id="G" x1="1052.6" x2="1077.04" y1="2122.71" y2="2122.71" xlink:href="#c"/><linearGradient id="H" x1="3578.14" x2="3609.16" y1="1635.43" y2="1635.43" xlink:href="#c"/><clipPath id="l"><path fill="none" d="m3127.91 2464.5 21.66 182.02 154.88 6.12-15.4-200.51-161.14 12.37z"/></clipPath><clipPath id="m"><path fill="none" d="m2938.81 2496.18 14.79 182.7 154.54 11.94-7.84-200.95-161.49 6.31z"/></clipPath><clipPath id="n"><path fill="none" d="M3162.58 1482.11c17.71 20.24 43 197.34 41.84 253S3329.55 2532 3329.55 2532l-53 9.19-136.77 23.7v38l-227.6 22.77s-55.76-695.73-45.64-920.9c7.59-168.87 29.45-225.32 39.93-243 3.49-5.9 5.71-7.47 5.71-7.47Z"/></clipPath><clipPath id="o"><path fill="none" d="M2576.58 1000s-11.07-20.47-10.23-50 11.81-41.32-9.27-53.13-51.45-35.63-54.82-27.93 8.43 37.79 31.2 43.82c5.68 21 1.69 24.83 1.69 24.83s-13.49-11.19-27.83-3.61-13.49 15.71-14.34 22.61 1.69 7.75-7.59 11.12-17.71 19.69-17.71 28.82 19.4 0 19.4 0 5.62 5.32 10.12 15.88c2.73 6.39 11.81 47.22 36.26 56.5s43.12-68.91 43.12-68.91Z"/></clipPath><clipPath id="p"><path fill="none" d="M2941.63 890.45s-33.73-68.65 25.3-97.33 54-5.9 54-5.9 60.72-2.53 64.09 10.12l3.38 12.65s31.2 3.37 51.44 30.36 50.6 33.73 38 45.54-21.09 21.17-21.09 21.17 4.42 17-8.92 21.83-14.69 43.6-24.81 53-25.18 18.54-31 12.85-150.39-104.29-150.39-104.29Z"/></clipPath><clipPath id="q"><path fill="none" d="M2945.8 872.1s-12.39 56-15.87 62.71-.74 16.86 0 20.23-22.88 79.27 69 75.9a145.36 145.36 0 0 1 0 42.17l104.58-33.74-10.88-37.1-3.46-33.74-45.47-67.16Z"/></clipPath><clipPath id="r"><path fill="none" d="M2919 890.21s3.67-7.3 5.62-7.55 21.37-5 36-1.83 36.05 11.17 47.15 16.17 10.17 11.64 10.31 19-7.86 22.12-12 21.59-40.4-6.32-51.9-11.44-10.53-7.18-16.37-8.31-8.73 3.21-16 2-6.67-.06-7.41-3 4.6-26.63 4.6-26.63Z"/></clipPath><clipPath id="s"><path fill="none" d="M3256.19 1231.65c-4.28 22.11-16.22 63.15-28.06 101.3-9.16 29.5-18.29 57.28-23.81 73.27-12.65 36.68-23.58 59.45-23.58 59.45s3.34 35.42-9.31 45.54-76.6 21.5-123 24-136.27-8.85-151.45-32.89c-8-12.65-9.33-36.55-9.13-60.21.13-21.25 1.47-42.33.28-54.9-2.53-26.56-12.65-121.18-12.65-121.18s-102.46-16.7-165.71-31.88c-17.43-4.18-39.37-17.76-62-35.29-59.53-46-123.94-119-123.94-119s21.5-79.41 65.77-83.34c77.17 59.31 158.13 112.44 183.43 113.7s112-37.52 193.23-37.11c0 0 25.2-28.67 49.44-28.67s86.22-35.42 115.31 0 27.83 44.28 63.25 68.31 69.52 79.68 61.93 118.9Z"/></clipPath></defs><g data-name="5"><ellipse cx="2754.1" cy="2738.16" fill="url(#a)" rx="636.72" ry="86.18"/><path fill="url(#d)" d="M1653.37 1671c35.86-29.09 44.84-82.45 29.56-126s-49-78-83.83-108.25c-98.72-85.66-214.27-150-314.32-234.13s-177.41-177.9-180.78-308.56c-6.51-253.77 220.61-312.57 345.49-317.28 136.93-5.17 254.19 31.78 390.22 48.19 142.42 17.19 286.21 46.16 428.1 25.11 159.67-23.68 302.95-108.63 456.72-157.71 183.55-58.58 392.21-62.89 561.75 28.63s285.6 292.6 242.09 480.3c-29.88 128.84-124.85 231.3-218.58 324.62-34.13 34-71.54 76.6-61.65 123.75 5.16 24.6 22.68 44.67 41.13 61.75 58.8 54.41 132.13 90 198.36 135.09s128.72 105 147.09 182.93c24.16 102.56-36.86 210.17-122.36 271.75s-191.26 86.65-294.24 108.95q-185.77 40.21-372.81 74.3c-244.79 44.6-492.19 81.37-741 80.85s-500.29-39.45-727.54-140.81c-84-37.47-167.43-86.14-217.77-163.11s-57.81-188.35 4.3-256.19c49.85-54.46 128.87-68.52 201.88-79.51 110.57-16.67 237.06-13.22 288.19-54.67Z"/><path fill="#fff" d="M1859.91 1675.07c28.32-23 35.42-65.15 23.35-99.57s-38.68-61.62-66.23-85.52c-78-67.68-169.28-118.53-248.32-185s-140.17-140.5-142.82-243.73c-5.15-200.48 174.29-246.94 272.95-250.66 108.18-4.09 200.82 25.11 308.29 38.07 112.51 13.58 226.11 36.47 338.22 19.84 126.14-18.71 239.34-85.82 360.82-124.59 145-46.29 309.86-49.69 443.81 22.61s225.63 231.2 191.25 379.48c-23.6 101.79-98.63 182.74-172.68 256.46-27 26.86-56.52 60.52-48.71 97.76 4.08 19.45 17.92 35.3 32.5 48.79 46.45 43 104.39 71.11 156.71 106.73s101.69 82.92 116.21 144.52c19.09 81-29.12 166-96.67 214.7s-151.1 68.45-232.46 86.07q-146.77 31.77-294.53 58.7c-193.4 35.24-388.86 64.29-585.44 63.87s-395.25-31.16-574.79-111.24c-66.36-29.61-132.27-68-172-128.87s-45.68-148.8 3.39-202.4c39.39-43 101.81-54.13 159.49-62.81 87.33-13.13 187.26-10.44 227.66-43.21Z" opacity=".3"/><path fill="#fff" d="M2102.89 1683.18c17.72-14.38 22.16-40.75 14.61-62.28s-24.19-38.54-41.43-53.49c-48.78-42.33-105.88-74.14-155.32-115.7s-87.67-87.87-89.32-152.44c-3.22-125.4 109-154.45 170.72-156.78 67.66-2.56 125.6 15.7 192.83 23.81 70.37 8.49 141.42 22.81 211.54 12.41 78.9-11.7 149.7-53.68 225.69-77.93 90.7-29 193.81-31.08 277.59 14.14s141.13 144.59 119.62 237.34c-14.76 63.67-61.69 114.3-108 160.42-16.87 16.79-35.36 37.85-30.47 61.14 2.55 12.16 11.21 22.08 20.33 30.52 29 26.89 65.29 44.48 98 66.75s63.61 51.87 72.69 90.4c11.94 50.68-18.22 103.86-60.47 134.29s-94.51 42.81-145.4 53.83q-91.8 19.88-184.22 36.72c-121 22-243.21 40.21-366.17 40s-247.22-19.5-359.52-69.58c-41.5-18.52-82.73-42.57-107.61-80.61s-28.58-93.14 2.14-126.64c24.63-26.91 63.68-33.86 99.75-39.29 54.65-8.21 117.15-6.53 142.42-27.03Z" opacity=".3"/><g opacity=".8"><path fill="#4a1d7e" d="m3282.65 1370.7 139.28.63c0 79-62.88 145.52-139.28 147.38s-139.29-65.25-139.29-148.65 62.88-149.93 139.29-147.38Z"/><path fill="#fff" d="M3445.26 1351.37c0-79.15-62.36-145.66-139.29-148.54v147.34Z"/></g><path fill="url(#b)" d="m2019.22 1005.53-55.52-3.38V787.52l55.52 5.22v212.79z" opacity=".6"/><path fill="url(#e)" d="m2730.92 1048.79-55.53-3.38V916.59l55.53 4.62v127.58z" opacity=".6"/><path fill="url(#f)" d="m2254.53 1019.83-55.52-3.37V532.6l55.52 7.7v479.53z" opacity=".6"/><path fill="url(#c)" d="m2372.19 1026.98-55.52-3.37V810.24l55.52 5.32v211.42z" opacity=".67"/><path fill="url(#g)" d="m2489.85 1034.13-55.52-3.37V762.28l55.52 5.87v265.98z" opacity=".6"/><path fill="url(#h)" d="m2136.88 1012.68-55.53-3.38V659.46l55.53 6.45v346.77z" opacity=".67"/><path fill="url(#i)" d="m2607.9 1041.31-55.52-3.38V639.11l55.52 7.16v395.04z" opacity=".67"/><g opacity=".8"><path fill="#331768" d="M2648.3 2311.33 1940.23 2424c-4.93.78-8.92-2.19-8.92-6.65V1993c0-4.46 4-8.43 8.92-8.88l708.07-64.55c4.93-.45 8.92 2.39 8.92 6.35v376.79c0 4-3.99 7.84-8.92 8.62Z"/><path fill="#9b7bdb" d="m2630.17 2295.78-671.81 104.76c-4 .62-7.2-1.79-7.2-5.37V2105c0-3.58 3.22-6.84 7.2-7.28l671.81-73.24c4-.43 7.2 1.81 7.2 5v259.33c0 3.24-3.22 6.35-7.2 6.97Z"/><path fill="#f9c748" d="m1985.68 2046.23-20.45 2.08a3.39 3.39 0 0 1-4-3.19v-27a4.28 4.28 0 0 1 4-4l20.45-2a3.4 3.4 0 0 1 4 3.19v26.9a4.3 4.3 0 0 1-4 4.02ZM2037.39 2041l-20.45 2.07a3.37 3.37 0 0 1-4-3.16v-26.8a4.28 4.28 0 0 1 4-3.95l20.45-2a3.38 3.38 0 0 1 4 3.16V2037a4.31 4.31 0 0 1-4 4ZM2089.09 2035.74l-20.45 2.08c-2.2.22-4-1.18-4-3.14v-26.58a4.26 4.26 0 0 1 4-3.92l20.45-2c2.21-.21 4 1.2 4 3.14v26.46a4.28 4.28 0 0 1-4 3.96Z"/><path fill="#6d46aa" d="m2609.45 2086.43-363 43.31c-6 .71-10.86-5-10.86-12.6s4.89-14.46 10.86-15.14l363-41.68c6-.68 10.86 4.62 10.86 11.79s-4.89 13.61-10.86 14.32ZM2336.45 2329.86l-363 55.91c-6 .92-10.85-4.86-10.85-12.84s4.88-15.24 10.85-16.13l363-54.27c6-.89 10.86 4.52 10.86 12s-4.89 14.47-10.86 15.33Z"/><path fill="#fff" d="m2404.62 2319.37-40.17 6.18a1.88 1.88 0 0 1-2.41-1.66v-23.16a2.71 2.71 0 0 1 2.41-2.39l40.17-6c1.32-.2 2.4.54 2.4 1.65v23a2.72 2.72 0 0 1-2.4 2.38ZM2461.24 2310.65l-40.17 6.18c-1.33.21-2.41-.53-2.41-1.64v-22.94a2.7 2.7 0 0 1 2.41-2.37l40.17-6c1.32-.2 2.4.54 2.4 1.64v22.77a2.71 2.71 0 0 1-2.4 2.36ZM2612.94 2142.85l-601.07 77.61c-4.06.52-7.37-3.45-7.37-8.83s3.31-10.2 7.37-10.71l601.07-75.77c4-.51 7.37 3 7.37 7.91s-3.31 9.27-7.37 9.79ZM2612.94 2181.06l-601.07 81.56c-4.06.55-7.37-3.4-7.37-8.78s3.31-10.22 7.37-10.76l601.07-79.73c4-.54 7.37 3 7.37 7.87s-3.31 9.29-7.37 9.84Z"/></g><path fill="url(#j)" d="M3367.73 931.09a270.09 270.09 0 0 0 7.88-41.33L3334 865.89q.31-6.2.32-12.49a253 253 0 0 0-2.4-34.59l39.66-19.07a310.9 310.9 0 0 0-11.68-42.58l-45.55-2.84a281.81 281.81 0 0 0-22.59-43.61l24.62-37.25a347.33 347.33 0 0 0-28.67-35.3l-39 19.48a275.5 275.5 0 0 0-37.83-30.82l4-48.37a298.84 298.84 0 0 0-39-19.93l-23.61 38.79a220.09 220.09 0 0 0-38.38-9.48c-2-.31-4.06-.58-6.08-.83l-17.61-49.07a225 225 0 0 0-40.51 1.05l-2.76 50.18a175.06 175.06 0 0 0-40.89 13.78L2970.78 565a213.75 213.75 0 0 0-32.65 23.3l18.72 49.78a200.56 200.56 0 0 0-28 35.54L2884.23 657a279.78 279.78 0 0 0-17.37 40.43l35.92 36.64a266 266 0 0 0-8.58 49l-43.88 9.45c-.09 3.1-.14 6.21-.14 9.35a359.12 359.12 0 0 0 2 38.12l44.87 13.87a294.87 294.87 0 0 0 12.69 50l-33.11 33.06a340.58 340.58 0 0 0 20.86 42.08l43.57-12.11a261.53 261.53 0 0 0 31.09 38.4l-14.72 47.76a277.84 277.84 0 0 0 34.84 26.59l32.26-34.13a214.2 214.2 0 0 0 42.4 18l7 50.29a244.56 244.56 0 0 0 39.82 5.37h1.15l13.57-47a199.52 199.52 0 0 0 44-5.37l27.19 41.28a241.93 241.93 0 0 0 37.65-15.49l-8.22-48.68a206.67 206.67 0 0 0 35.42-26.44l41.1 24a254.7 254.7 0 0 0 25.78-31.89l-28.13-40.13a217.18 217.18 0 0 0 18.86-41ZM3113.79 949c-59.91-5-108.47-63.51-108.47-130.61s48.56-115.24 108.47-107.51 108.47 66.2 108.47 130.61S3173.69 954 3113.79 949Z"/><path fill="#fff" d="M2960.38 949.25h-.38a5.23 5.23 0 0 1-3.95-2.49 255.51 255.51 0 0 1-16.65-31.44 5.38 5.38 0 0 1 2.22-7.06 4.62 4.62 0 0 1 3.68-.21 5.48 5.48 0 0 1 3.12 3 242.17 242.17 0 0 0 15.88 30 5.53 5.53 0 0 1-1.12 7.32 4.62 4.62 0 0 1-2.8.88Zm0-4.37a.26.26 0 0 0 .19-.06 1.24 1.24 0 0 0 .05-1.53 246.1 246.1 0 0 1-16.16-30.52 1.13 1.13 0 0 0-.6-.63h-.25a1.15 1.15 0 0 0-.18 1.39 249.26 249.26 0 0 0 16.35 30.89.86.86 0 0 0 .6.46ZM3090.41 1044.32h-.32a5.43 5.43 0 0 1-.67-.1c-34.44-7.28-67.17-24.65-94.66-50.22a5.68 5.68 0 0 1-.81-7.37 4.7 4.7 0 0 1 3.37-2 5 5 0 0 1 3.86 1.36c26.13 24.32 57.21 40.84 89.87 47.79a5.49 5.49 0 0 1 4.16 6 4.9 4.9 0 0 1-4.8 4.54ZM2997.78 989a.4.4 0 0 0-.26.17 1.36 1.36 0 0 0 .25 1.63c26.91 25 58.92 42 92.57 49.14h.07c.27 0 .44-.24.49-.61a1.17 1.17 0 0 0-.73-1.27c-33.43-7.11-65.23-24-91.94-48.86a.62.62 0 0 0-.45-.2Z"/><path fill="url(#k)" d="M2003.3 2256.6c.78-9.36 1.2-18.81 1.2-28.33 0-5-.13-10-.35-14.92l-35.06-10.66a240.74 240.74 0 0 0-12.41-54.62l23.25-40.83a236.67 236.67 0 0 0-18.42-33.73l-35.06 19.06a149 149 0 0 0-34.71-32.3l2-50a144.77 144.77 0 0 0-30.61-11.83l-21.65 42.67a114 114 0 0 0-26-.41 119.13 119.13 0 0 0-17.82 3.15l-20-40.62a167.22 167.22 0 0 0-31.15 15.57v50.94a191.35 191.35 0 0 0-36.08 38.11l-34.4-14.85a311.62 311.62 0 0 0-19.81 38.1l21.71 39.21a298.93 298.93 0 0 0-14.63 59.41l-35.61 17.72q-1.17 14.85-1.19 30 0 8 .34 15.8l35.06 11.22a258.76 258.76 0 0 0 12.42 57l-23.25 43.4a236.22 236.22 0 0 0 18.41 34.64l35.07-21.33a137.14 137.14 0 0 0 34.71 31.58l-2 51.26a130.88 130.88 0 0 0 30.61 9.86l21.65-44.64a112.91 112.91 0 0 0 26-1.23 125 125 0 0 0 17.83-4.29l20 38.85a187.66 187.66 0 0 0 31.14-17.69v-49.89a209.21 209.21 0 0 0 36.07-39.11l34.4 12.47a317.75 317.75 0 0 0 19.81-37.45l-21.71-36.6a283.14 283.14 0 0 0 14.64-57.29Zm-187.78 97.56c-40.93 6-74.12-35.07-74.12-91.64s33.19-106.24 74.12-110.94 74.12 36.33 74.12 91.64-33.18 104.99-74.12 110.94Z"/><path fill="#fff" d="M1916.18 2357.09a5.05 5.05 0 0 1-3.53-1.47c-2.32-2.27-2.71-6.57-.87-9.82 18.29-32.2 28.36-71.07 28.36-109.44a206.42 206.42 0 0 0-6.66-52.83c-.94-3.53.55-7.59 3.38-9.24a5 5 0 0 1 4.58-.37 6.2 6.2 0 0 1 3.48 4.28 222.8 222.8 0 0 1 7.23 57.17c0 41.45-10.9 83.46-30.7 118.3a6.43 6.43 0 0 1-4.52 3.37 6.3 6.3 0 0 1-.75.05Zm23.36-179.18a1 1 0 0 0-.48.15 4.19 4.19 0 0 0-1.36 4.35 210.67 210.67 0 0 1 6.81 54c0 39.12-10.28 78.75-28.93 111.6-.92 1.63-.7 3.73.12 4.52a.62.62 0 0 0 .59.23 2.14 2.14 0 0 0 1.36-1.2c19.43-34.19 30.13-75.44 30.13-116.14a218.55 218.55 0 0 0-7.08-56 2 2 0 0 0-.92-1.36.54.54 0 0 0-.24-.15ZM1905.57 2122.86a5.2 5.2 0 0 1-4-1.88c-12.18-14.14-26.27-24.35-41.86-30.36-3-1.17-4.62-5.12-3.62-9a7.43 7.43 0 0 1 3.61-4.85 5 5 0 0 1 4.19-.25c17.25 6.66 32.8 17.94 46.23 33.52 2.15 2.5 2.31 6.84.34 9.87a6.15 6.15 0 0 1-4.37 2.91Zm-43.45-42.31a.89.89 0 0 0-.39.11 3.2 3.2 0 0 0-1.37 2.07c-.5 1.91.24 3.53 1 3.81 16.27 6.27 30.94 16.9 43.6 31.59.35.4.63.37.72.36a1.88 1.88 0 0 0 1.19-.94 4.3 4.3 0 0 0 0-4.64c-12.95-15-27.92-25.9-44.5-32.31a.66.66 0 0 0-.25-.05ZM1786.48 2093.76c-2.66 0-5-2.17-5.55-5.37-.7-3.74 1.06-7.72 4-9a107.36 107.36 0 0 1 33-9 5.09 5.09 0 0 1 4 1.33 7.6 7.6 0 0 1 2.27 5.67c0 4-2.53 7.44-5.77 7.78a96.74 96.74 0 0 0-29.81 8.17 5.17 5.17 0 0 1-1.61.45Zm32-19.08h-.07a102.73 102.73 0 0 0-31.67 8.64c-1 .45-1.87 2.37-1.52 4.26.22 1.19.86 1.85 1.32 1.8a.7.7 0 0 0 .27-.08 101.32 101.32 0 0 1 31.15-8.53c.76-.08 1.87-1.46 1.87-3.44a3.3 3.3 0 0 0-.84-2.42.72.72 0 0 0-.51-.23Z"/><g opacity=".8"><path fill="#6d46aa" d="m2913.62 1735.02-1011.8 66.53-1.4-673.85 1011.81 38.18 1.39 569.14z"/><path fill="#fff" d="m2505.26 1247.27.93 407.65c0 11.8-7.79 21.79-17.43 22.28s-17.5-8.75-17.53-20.62l-.93-410.06c0-11.87 7.79-21.32 17.43-21.08a16.57 16.57 0 0 1 12.38 6.58 24.56 24.56 0 0 1 5.15 15.25ZM2583.36 1672.36c-9.66.49-17.5-8.58-17.53-20.27l-.93-403.54c0-11.69 7.78-21 17.43-20.73 9.66.24 17.5 9.86 17.53 21.49l.93 401.12c.03 11.62-7.79 21.44-17.43 21.93ZM2678 1667.53c-9.66.49-17.5-8.43-17.53-19.93l-.93-397c0-11.51 7.78-20.64 17.43-20.4 9.66.25 17.5 9.72 17.53 21.15l.93 394.59c-.01 11.43-7.82 21.06-17.43 21.59ZM2772.56 1662.71c-9.66.49-17.5-8.28-17.53-19.59l-.93-390.47c0-11.32 7.78-20.3 17.43-20.05 9.66.24 17.5 9.56 17.53 20.81l.93 388.06c.01 11.24-7.78 20.75-17.43 21.24Z"/><path fill="#f9c748" d="m2505.5 1351.71.69 303.21c0 11.8-7.79 21.79-17.43 22.28s-17.5-8.75-17.53-20.62l-.69-305ZM2600.25 1417.7l.55 237c0 9.22-7.8 17.12-17.44 17.61s-17.5-6.64-17.52-15.93l-.55-238.47ZM2694.53 1279.37l.85 361.76c0 14.07-7.78 25.91-17.42 26.4s-17.51-10.61-17.54-24.78l-.85-364ZM2789.08 1261.79l.9 373.68c0 14.54-7.78 26.75-17.42 27.24s-17.51-11-17.55-25.63l-.89-376Z"/><path fill="#fff" d="m2274.92 1623.54-235.77 9.68c-11.25.46-20.47-11.34-20.5-26.23l-.76-360.3c0-14.89 9.14-26.86 20.38-26.59l235.78 5.6c11.24.27 20.47 12.15 20.5 26.4l.76 344.7c.03 14.2-9.15 26.28-20.39 26.74Z"/><path fill="#f9c748" d="m2094.77 1577.99-33.41 1.1-.37-176.38 33.41-.17.37 175.45zM2168.28 1575.59l-33.41 1.09-.47-218.09 33.41.07.47 216.93zM2241.79 1573.19l-33.41 1.09-.55-250.54 33.42.27.54 249.18z"/><path fill="#eb1c24" d="M2114.94 1519.86 2077.7 1463l-41.45 55.64a2.18 2.18 0 1 1-3.5-2.61l45.18-60.65 36.5 55.74 36.64-73.44 39.91 63.57 91.38-126.62a2.18 2.18 0 1 1 3.54 2.55L2190.73 1509l-39.23-62.47Z"/><path fill="#4a1d7e" d="m2400.06 1325.26-71-.57c-3.67 0-6.68-3.83-6.69-8.46v-3.48c0-4.63 3-8.38 6.65-8.33l71 .8c3.66 0 6.67 3.8 6.68 8.36v3.42c.02 4.58-2.97 8.29-6.64 8.26ZM2400.25 1407.24l-71 .4c-3.67 0-6.67-3.74-6.68-8.37v-3.48c0-4.63 3-8.42 6.64-8.43l71-.16c3.67 0 6.68 3.71 6.69 8.27v3.44c0 4.56-2.99 8.31-6.65 8.33ZM2400.43 1489.21l-71 1.37c-3.66.07-6.67-3.65-6.68-8.28v-3.48c0-4.62 3-8.46 6.65-8.51l71-1.14c3.66-.06 6.67 3.62 6.68 8.18v3.44c.01 4.56-2.98 8.35-6.65 8.42ZM2113.49 1710.81l-123.42 6.67c-6 .32-11-6-11-14v-6c0-8 4.9-14.83 10.92-15.12l123.43-6c6-.29 11 5.89 11 13.74v5.9c.01 7.8-4.9 14.49-10.93 14.81ZM2319 1699.75l-123.43 6.64c-6 .32-11-5.77-11-13.54V1687c0-7.77 4.89-14.37 10.92-14.66l123.42-6c6-.29 11 5.68 11 13.27v5.72c.09 7.67-4.91 14.1-10.91 14.42Z"/></g><path fill="#fff" d="m1314.78 1762.76 302-15.68V989.31c0-5.64-4.83-10.51-10.78-10.88L1254.25 957a10 10 0 0 0-10.78 10.11v728.1c0 39.33 31.93 69.6 71.31 67.55Z"/><path fill="#a98ce0" d="M1323.78 1740.11 1612.6 1726v-724.46c0-5.36-4.58-10-10.23-10.31l-336.09-19.88a9.52 9.52 0 0 0-10.23 9.61v694.84c0 37.34 30.32 66.13 67.73 64.31Z"/><path fill="#fff" d="M1402.77 1581v-13.65c0-10.77 5.2-19.61 11.6-19.75l357.58-7.84c6.4-.14 11.6 8 11.6 18.18v12.91c0 91.49-46.67 168.07-104.23 171L1314 1760.73c57.53-2.97 89.56-74.22 88.77-179.73Z"/><path fill="#a98ce0" d="M1411.57 1594.28v-11c0-8.7 4.86-15.87 10.86-16l334.83-8.29c6-.15 10.86 6.42 10.86 14.68v10.46c0 74.2-43.69 136.47-97.59 139.1L1314 1740.59c53.87-2.59 97.57-42.59 97.57-146.31Z"/><path fill="#fff" d="M1548.31 1299.42h-.18l-254.69-3.6c-9.24-.13-16.77-10.89-16.77-24v-204.47c0-7.75 2.66-14.91 7.12-19.16a13.1 13.1 0 0 1 9.79-3.9l254.69 12.44c9.2.45 16.69 11 16.69 23.63v196.34c0 7.3-2.57 14.19-6.87 18.43a13.8 13.8 0 0 1-9.78 4.29ZM1293 1048.64a9 9 0 0 0-6.19 2.72c-3.6 3.43-5.76 9.41-5.76 16v204.48c0 10.54 5.71 19.53 12.47 19.62l254.68 3.6a9.63 9.63 0 0 0 6.84-3c3.48-3.44 5.56-9.16 5.56-15.32v-196.38c0-10.11-5.74-18.94-12.54-19.27l-254.68-12.44Zm255.28 244h-.14l-254.69-3.85c-6.72-.1-12-7.51-12-16.86v-204.36c0-5.4 1.87-10.41 5-13.4a9.54 9.54 0 0 1 7.12-2.83l254.68 12.19c6.68.32 11.92 7.61 11.92 16.61v196.48c0 5.1-1.81 9.93-4.84 12.91a10 10 0 0 1-7.06 3.09Zm-255.12-236.94a5.44 5.44 0 0 0-3.68 1.63c-2.29 2.18-3.65 6-3.65 10.24v204.34c0 6.71 3.51 12.43 7.68 12.49l254.68 3.85a5.84 5.84 0 0 0 4.09-1.83c2.21-2.18 3.53-5.84 3.53-9.8v-196.48c0-6.44-3.55-12.05-7.76-12.25l-254.68-12.19Z"/><path fill="#331768" d="M1378.13 1392.71h279.95c4 0 7.23-4.54 7.23-10.1s-3.25-10.12-7.23-10.14l-279.95-.89c-4 0-7.23 4.72-7.23 10.52s3.25 10.6 7.23 10.61ZM1378.13 1431.16l279.95-1.48c4 0 7.23-4.58 7.23-10.14s-3.25-10.1-7.23-10.09l-279.95.63c-4 0-7.23 4.76-7.23 10.57s3.25 10.53 7.23 10.51ZM1378.13 1468.27l279.95-3c4 0 7.23-4.63 7.23-10.18s-3.25-10.09-7.23-10.06l-279.95 2.11c-4 0-7.23 4.81-7.23 10.61s3.25 10.56 7.23 10.52Z"/><path fill="#6d46aa" d="m1362.16 1103.68 11 .45a2.59 2.59 0 0 0 2.75-2.58v-16.28a2.87 2.87 0 0 0-2.75-2.81l-11-.49a2.58 2.58 0 0 0-2.74 2.58v16.32a2.86 2.86 0 0 0 2.74 2.81ZM1332.14 1102.44l11 .45a2.58 2.58 0 0 0 2.74-2.58V1084a2.88 2.88 0 0 0-2.74-2.83l-11-.49a2.59 2.59 0 0 0-2.74 2.59v16.39a2.86 2.86 0 0 0 2.74 2.78ZM1302.12 1101.2l11 .46a2.6 2.6 0 0 0 2.74-2.6v-16.42a2.89 2.89 0 0 0-2.74-2.84l-11-.48a2.58 2.58 0 0 0-2.74 2.59v16.46a2.86 2.86 0 0 0 2.74 2.83ZM1497.22 1265.62l37.69.7v-88.67l-37.69-1.18v89.15zM1393.31 1263.69l37.69.7v-82.51l-37.69-1.15v82.96z"/><path fill="#f9c748" d="m1333.2 1262.57 37.7.7V1142.9l-37.7-1.34v121.01zM1446.29 1264.67l37.69.7v-54.1l-37.69-.99v54.39z"/><path fill="#f9c184" d="m3127.91 2464.5 21.66 182.02 154.88 6.12-15.4-200.51-161.14 12.37z"/><path fill="#ea953f" d="M3135.73 2593.74s35.84-1.1 54.31 16.27 97.5-13.33 121.37 1 39.21 61.33 39.21 61.33l-49.43 68.89-201.82-58.11Z" clip-path="url(#l)"/><path fill="#db3333" d="m3308.61 2620.47 31.39 102.07-412.75 31.71-.23-3a62.19 62.19 0 0 1 31-58.71l185.69-91.15c6.64-3.81 15.5-4.35 21.18.79 26.76 24.22 57.22 64.69 129.24 12.71 5.31-3.81 12.77-.64 14.48 5.58Z"/><path fill="#fff" d="M2927.72 2738.35h413.97v27.34h-413.97z" transform="rotate(175.61 3134.765 2751.947)"/><path fill="#fff" d="M3153.05 2669.58h4.37v84.32h-4.37z" transform="rotate(-29.82 3155.376 2711.804)"/><path fill="#fff" d="M3103.44 2691.98h4.37v62.88h-4.37z" transform="rotate(-29.82 3105.86 2723.535)"/><path fill="#f9c184" d="m2938.81 2496.18 14.79 182.7 154.54 11.94-7.84-200.95-161.49 6.31z"/><path fill="#ea953f" d="M2941.76 2625.62s35.85.25 53.66 18.3 97.94-9.65 121.25 5.53 36.87 62.76 36.87 62.76l-52 67-199.49-65.67Z" clip-path="url(#m)"/><path fill="#db3333" d="m3113.51 2658.83 27.56 103.17-413.66 16.15-.11-3a62.19 62.19 0 0 1 33.24-57.5l189-84.1c6.78-3.56 15.65-3.76 21.13 1.59 25.83 25.21 54.74 66.8 128.67 17.57 5.36-3.6 12.66-.15 14.17 6.12Z"/><path fill="#fff" d="M2727.79 2770.08h413.97v27.34h-413.97z" transform="rotate(177.76 2934.657 2783.875)"/><path fill="#fff" d="M2954.62 2702.1h4.37v84.32h-4.37z" transform="rotate(-27.66 2957.224 2744.49)"/><path fill="#fff" d="M2904.61 2722.63h4.37v62.88h-4.37z" transform="rotate(-27.66 2907.315 2754.37)"/><path fill="#4a1d7e" d="M3162.58 1482.11c17.71 20.24 43 197.34 41.84 253S3329.55 2532 3329.55 2532l-53 9.19-136.77 23.7v38l-227.6 22.77s-55.76-695.73-45.64-920.9c7.59-168.87 29.45-225.32 39.93-243 3.49-5.9 5.71-7.47 5.71-7.47Z"/><g clip-path="url(#n)"><path fill="#9a72d3" d="M3175.89 1446.6c-44.71-25.23-97.3-31.53-148.35-37-73.6-7.86-154.08-13.39-215.49 28l33.69 66.34q13 7.9 26.44 14.81l-99.87 94.39a5999.63 5999.63 0 0 1 85.08 961.42c.37 48.51 9.27 109.82 56 122.81 38.52 10.72 77.61-24.05 87.11-62.89-8.69-35.36-15.89-65.09-26.4-103.67-87.73-322-104.33-672.59-89.86-1006.06 72.89 34.81 155 49.73 236.06 50 21.39.06 43.34-1 63-9.33s36.92-25.41 39.94-46.59c4.34-30.38-20.69-57.18-47.35-72.23Z" opacity=".8"/></g><path fill="#f9c184" d="M2576.58 1000s-11.07-20.47-10.23-50 11.81-41.32-9.27-53.13-51.45-35.63-54.82-27.93 8.43 37.79 31.2 43.82c5.68 21 1.69 24.83 1.69 24.83s-13.49-11.19-27.83-3.61-13.49 15.71-14.34 22.61 1.69 7.75-7.59 11.12-17.71 19.69-17.71 28.82 19.4 0 19.4 0 5.62 5.32 10.12 15.88c2.73 6.39 11.81 47.22 36.26 56.5s43.12-68.91 43.12-68.91Z"/><g clip-path="url(#o)"><path fill="#ea953f" d="m2500.07 909.29 41.37 31.65q1.2-7.19 2.41-14.38c.86-5.15 1.66-10.72-.73-15.36-2.61-5.06-8.27-7.6-13.29-10.3a85.27 85.27 0 0 1-18.83-13.75c-3.24-3.13-6.29-6.61-7.93-10.8s-1.67-9.23.86-13l-7.93-12.9a162.1 162.1 0 0 0-6.47 36c-.31 4.72-.36 9.7 1.82 13.91 1.93 3.7 5.38 6.38 8.72 8.93ZM2559.41 1031.53c-6 7-13.61 13.75-22.82 14.15s-17.63-5.83-22.8-13.48-7.81-16.66-11.16-25.26c-1.79-4.61-4-9.38-8.05-12.21a4.13 4.13 0 0 0-2.38-.92 4.87 4.87 0 0 0-2.47 1.06l-15.15 10.13 10.54 53.62c7.33 19.54 30.53 31.57 50.73 26.32 17.21-4.48 30.13-19.5 36.56-36.07s7.37-34.71 7.89-52.48a122 122 0 0 1-20.89 35.14ZM2504.36 931.72a12.2 12.2 0 0 0-.37 22.22 14.83 14.83 0 0 1 3.47 1.8c1 .86 1.58 2.4.85 3.49a3.84 3.84 0 0 1-2.63 1.29c-4.48.82-9 1.22-13.44 2.35a42.86 42.86 0 0 0-29.92 28.89c1.62-20 13.84-37.53 27-52.7 1.7-1.95 3.72-4 6.3-4.13Z"/></g><path fill="#1b1049" d="M2941.63 890.45s-33.73-68.65 25.3-97.33 54-5.9 54-5.9 60.72-2.53 64.09 10.12l3.38 12.65s31.2 3.37 51.44 30.36 50.6 33.73 38 45.54-21.09 21.17-21.09 21.17 4.42 17-8.92 21.83-14.69 43.6-24.81 53-25.18 18.54-31 12.85-150.39-104.29-150.39-104.29Z"/><g clip-path="url(#p)"><path fill="#0c072d" d="M2935 902.66c-1.47-12.2-2.95-24.56-1.32-36.74s6.73-24.37 16.3-32.08c7.39-6 19.07-8.43 26-1.94 3.1 2.91 6.09 7.69 10.16 6.48a9.62 9.62 0 0 0 3.21-2.11 41.18 41.18 0 0 1 43.64-5.37c9.12 4.48 16.25 12.23 25.11 17.2a47.8 47.8 0 0 0 42.82 1.57 50.89 50.89 0 0 1-23.52 17.94c-2.77 1-5.91 2-7.27 4.65-1.71 3.27.33 7.29 2.94 9.89 8.18 8.16 21 9.12 32.55 8.11s23.31-3.48 34.44-.36c2.53.71 5.47 2.42 5.21 5.05-.16 1.51-1.38 2.67-2.52 3.68-14.56 12.9-29.79 26.28-37.23 44.26-7.72 18.66-6.74 41.51-20.35 56.43-6.29 6.9-15.07 11.15-24.12 13.44-29.64 7.5-63.43-6.92-78.52-33.51Z"/></g><path fill="#f9c184" d="M2945.8 872.1s-12.39 56-15.87 62.71-.74 16.86 0 20.23-22.88 79.27 69 75.9a145.36 145.36 0 0 1 0 42.17l104.58-33.74-10.88-37.1-3.46-33.74-45.47-67.16Z"/><g clip-path="url(#q)"><path fill="#ea953f" d="M3076.2 881.55c-18.66-12.95-41.57-18.35-61.08-30-15.3-9.14-30.45-22.61-48.14-20.47l-49.43 100.84c4.47 7.13 5.12 18.92 13.54 18.89s25.18-11.27 33.59-11.73c15.19-.85 30 4.17 44.43 9.13 6.34 2.18 12.83 4.44 18 8.7 6.59 5.41 10.39 13.48 16.3 19.62 8.91 9.26 22 13.47 34.89 14.12 9.45.47 19.63-1.09 26.6-7.49 7.5-6.89 9.69-17.85 9.71-28a90.9 90.9 0 0 0-38.41-73.61ZM3036.83 1017.06c-15.67 4.51-31.18 9.86-47.3 12.33s-33.2 1.87-47.91-5.15l10.71 19.66c7.79 6.46 18.09 9.3 28.2 9.69 24.32.94 48.67-12.44 60.92-33.47a3.34 3.34 0 0 0 .47-1.12c.31-2.16-3-2.54-5.09-1.94Z"/></g><path fill="#141a66" d="M3003.19 936.49s63.07 23.38 96 24.34 53.87-15.61 53.21-19.66-.84-11.52-4.65-12.28-21.87 14.47-59.47 6.59-73.82-28.42-73.82-28.42Z"/><path fill="#4655b2" d="M2920.57 883c10.25-16.94 37.55-14.44 53.76-13.08 15.59 1.3 30.19 10.08 43.22 17.3 9.23 5.12 24.32 11.38 30.31 20.3 4.33 6.45-9.27 44.48-17.56 47.46s-27 2-47.44-4.47-26-13.7-37-18.71-9.79 4.66-19.64 1.41-13.51-1.63-14.5-10.29 8.85-39.92 8.85-39.92Z"/><path fill="#8392dd" d="M2919.06 883.08c9.08-15 33.28-12.81 47.65-11.6 13.82 1.16 26.76 8.94 38.31 15.34 8.19 4.54 21.56 10.09 26.87 18 3.84 5.72-8.21 39.44-15.57 42.07s-23.91 1.8-42.05-4-23.07-12.15-32.8-16.58-8.69 4.13-17.42 1.25-12-1.45-12.85-9.13 7.85-35.35 7.86-35.35Z"/><path fill="#0e1651" d="M2919 890.21s3.67-7.3 5.62-7.55 21.37-5 36-1.83 36.05 11.17 47.15 16.17 10.17 11.64 10.31 19-7.86 22.12-12 21.59-40.4-6.32-51.9-11.44-10.53-7.18-16.37-8.31-8.73 3.21-16 2-6.67-.06-7.41-3 4.6-26.63 4.6-26.63Z"/><g clip-path="url(#r)" opacity=".7"><path fill="#fff" d="M2964.15 845.4h14.57v122.38h-14.57z" transform="rotate(46.34 2971.534 906.665)"/><path fill="#fff" d="M2981.38 857.83h6.31v122.86h-6.31z" transform="rotate(46.34 2984.633 919.347)"/></g><circle cx="3079.7" cy="958.37" r="31.32" fill="#313d9b" transform="rotate(-77.46 3079.534 958.436)"/><circle cx="3079.7" cy="958.37" r="21.66" fill="#141a66" transform="rotate(-74 3079.541 958.422)"/><path fill="#ef6926" d="M2955 984.1c-9 0-14-2.47-14.35-2.66a2.18 2.18 0 1 1 2-3.89c.21.1 14.48 6.87 38.44-4.25a2.18 2.18 0 0 1 1.84 4c-11.5 5.28-20.93 6.8-27.93 6.8Z"/><path fill="#fff" d="M3256.19 1231.65c-4.28 22.11-16.22 63.15-28.06 101.3-9.16 29.5-18.29 57.28-23.81 73.27-12.65 36.68-23.58 59.45-23.58 59.45s3.34 35.42-9.31 45.54-76.6 21.5-123 24-136.27-8.85-151.45-32.89c-8-12.65-9.33-36.55-9.13-60.21.13-21.25 1.47-42.33.28-54.9-2.53-26.56-12.65-121.18-12.65-121.18s-102.46-16.7-165.71-31.88c-17.43-4.18-39.37-17.76-62-35.29-59.53-46-123.94-119-123.94-119s21.5-79.41 65.77-83.34c77.17 59.31 158.13 112.44 183.43 113.7s112-37.52 193.23-37.11c0 0 25.2-28.67 49.44-28.67s86.22-35.42 115.31 0 27.83 44.28 63.25 68.31 69.52 79.68 61.93 118.9Z"/><g clip-path="url(#s)" opacity=".5"><path fill="#b29fcc" d="M3020.06 1445.5a160.94 160.94 0 0 0 26.42 117.63c-59.47-8.63-114.65-43.47-148-93.45-1.51-2.27-3.06-4.65-5.41-6-6.49-3.84-14.55 1.84-18.94 8-20.95 29.19-10.43 72.63 15.28 97.72s62.4 35.32 98 40.25a441.89 441.89 0 0 0 66.63 4.13c24-.32 49.25-3.08 68.64-17.18l-9.56-56.13c-43.33-13.63-70.07-55.84-93.06-94.97ZM3095.52 1068.57c-9.08-2.37-25.21-3.91-41.85-5-52.55-3.27-116-2-161.47 3.17l26.66 6.32c37.09 2.4 83.92-3.44 121.94-1.41 10.58.56 20.38 1.51 31.44 1.77s24.5-.47 27.23-2.13c1.53-.89-.74-1.88-3.95-2.72ZM2891 1070.34c-.41-5.3-5.88-8.53-10.77-10.63-28.92-12.39-60.38-17.28-90.83-25.19a468.31 468.31 0 0 1-168.4-82.69c-18-14-35.85-29.68-57.92-35.47s-49.94 2.47-57.31 24.06l12.81 166.76c5.47-30.53 36.78-54 67.62-50.81 13.29 1.4 25.71 7 37.86 12.55l121.63 55.43c14 6.38 29.31 12.92 44.32 9.5 7.1-1.61 13.5-5.35 19.77-9L2881 1083c4.86-2.92 10.43-7 10-12.66Z"/></g><path fill="#b29fcc" d="M3228.13 1333c-9.16 29.5-18.29 57.28-23.81 73.27-12.65 36.68-23.58 59.45-23.58 59.45s8.4-184.69 23.58-232.76c9.14 43.29 17.05 75.73 23.81 100.04Z" opacity=".5"/><path fill="#b29fcc" d="M2887.8 1442.14c.13-21.25 1.47-42.33.28-54.9-2.53-26.56-12.65-121.18-12.65-121.18s-102.46-16.7-165.71-31.88c-17.43-4.18-39.37-17.76-62-35.29 28.94 15.35 63.55 27.7 100 27.7 96.13 0 163.48 5.06 164 49.33.28 33.52 5.45 114.2-23.92 166.22Z" opacity=".5"/><path d="m3276.58 2541.23-136.77 23.7s-50.6-427.56-53.13-493.34-20.24-283.35-20.24-283.35 78.43-43 73.37-141.68c24.45 108 1.09 144.21-9.28 187.22-8.4 34.89 106.12 542.85 146.05 707.45Z" opacity=".5"/><circle cx="2564.9" cy="1809.3" r="31.52" fill="url(#t)"/><circle cx="2564.9" cy="1922.64" r="31.52" fill="url(#u)"/><rect width="31.52" height="805.41" x="2549.14" y="2056.13" fill="url(#v)" rx="6.8" transform="rotate(-180 2564.9 2458.84)"/><circle cx="3593.65" cy="1225.6" r="35.42" fill="url(#w)"/><circle cx="3329.55" cy="1799.64" r="21.76" fill="url(#x)"/><circle cx="3513.28" cy="631.53" r="29.09" fill="url(#y)"/><circle cx="1768.12" cy="872.1" r="19.24" fill="url(#z)"/><circle cx="1430.14" cy="758.8" r="33.78" fill="url(#A)"/><circle cx="3437.98" cy="2133.91" r="31.02" fill="url(#B)"/><circle cx="3140.46" cy="990.31" r="17.71" fill="url(#C)"/><circle cx="1064.39" cy="1654.87" r="24.44" fill="url(#D)"/><circle cx="1064.39" cy="1534.56" r="24.44" fill="url(#E)"/><rect width="29.09" height="470.2" x="3438.61" y="740.18" fill="url(#F)" rx="6.28" transform="rotate(-180 3453.16 975.28)"/><rect width="24.44" height="767.27" x="1052.6" y="1739.07" fill="url(#G)" rx="5.27"/><rect width="31.02" height="573.76" x="3578.14" y="1348.54" fill="url(#H)" rx="6.69"/></g></svg>