<svg xmlns="http://www.w3.org/2000/svg" viewBox="0 0 512 512"><path d="M256 72c-97.047 0-176 78.953-176 176v.17a175.997 175.997 0 0 0 97.288 157.418l1.444.723A23.87 23.87 0 0 1 192 427.777V472a24.027 24.027 0 0 0 24 24h88a24.027 24.027 0 0 0 24-24v-46.118a24.157 24.157 0 0 1 11.42-20.44l8.822-5.428a176.825 176.825 0 0 0 14.489-9.969l3.612 3.612a24.971 24.971 0 0 0 35.314-35.314l-3.907-3.907A177.056 177.056 0 0 0 432 250.122V248c0-97.047-78.953-176-176-176Zm56 400a8.01 8.01 0 0 1-8 8h-88a8.01 8.01 0 0 1-8-8v-16h104Zm0-46.118V440H208v-12.223A40.273 40.273 0 0 0 206.233 416h107.035a39.524 39.524 0 0 0-1.268 9.882Zm78.343-43.54a8.979 8.979 0 0 1-12.686 0l-79.809-79.808a72.566 72.566 0 0 0 13.189-12.183l79.306 79.306a8.979 8.979 0 0 1 0 12.686Zm-212.864-90.87-27.374 7.66-5.857-12.613 23.756-15.275-4.11-34.636-26.739-9.705 2.735-13.482 28.408 1.488 17.282-30.295-15.927-23.329 10.31-9.33 22.224 17.726 31.943-14.334.924-27.815 14.057-1.553 7.433 26.96 34.387 6.98 17.351-21.93 12.341 6.91-9.99 25.976 23.832 25.653 27.373-7.66 5.857 12.613-23.756 15.275 4.108 34.636 26.742 9.706-2.735 13.481-28.407-1.488-9.896 17.346-13.67-13.672a72.008 72.008 0 1 0-36.785 33.846l13.517 13.517-19 8.525-.922 27.815-14.059 1.553-7.433-26.96-34.386-6.978-17.352 21.929-12.34-6.911 9.989-25.976ZM256 300a56 56 0 1 1 56-56 56.063 56.063 0 0 1-56 56Zm160-49.878a160.993 160.993 0 0 1-29.71 92.854l-40.81-40.81 7.177-12.581 32.334 1.693 8.22-40.516-30.437-11.046-1.768-14.911 27.076-17.41-17.46-37.6-31.075 8.696-10.396-11.19 11.38-29.591-36.333-20.347-19.717 24.92-15.125-3.07-8.446-30.634-41.388 4.572-1.052 31.686-13.934 6.252-25.227-20.122-30.736 27.816 18.154 26.591-7.44 13.041-32.335-1.693-8.22 40.515 30.436 11.047 1.77 14.911-27.079 17.41 17.462 37.6 31.076-8.696 10.395 11.19-11.38 29.591 36.333 20.347 19.717-24.92 15.125 3.07 8.446 30.634 41.389-4.572 1.052-31.686 15.444-6.93 42.399 42.398a161.39 161.39 0 0 1-11.46 7.757l-8.822 5.426a39.667 39.667 0 0 0-9.492 8.186H196.808a40.205 40.205 0 0 0-10.917-7.999l-1.446-.723A159.999 159.999 0 0 1 96 248.17V248c0-88.225 71.775-160 160-160s160 71.775 160 160ZM448 224h48v16h-48zM248 16h16v40h-16zM346.343 74.342l32-32 11.314 11.314-32 32zM419.002 137.752l40.001-31.998 9.995 12.494-40.002 31.999zM435.884 326.86l8.232-13.721 40 24-8.232 13.721zM16 224h48v16H16zM122.343 53.658l11.314-11.315 32 32-11.314 11.315zM43.003 118.247l9.995-12.494 40 32-9.995 12.494zM27.885 337.139l40-24 8.233 13.72-40 24z"/></svg>